<mxfile host="app.diagrams.net" modified="2024-01-20T20:35:45.153Z" agent="Mozilla/5.0 (Windows NT 10.0; Win64; x64) AppleWebKit/537.36 (KHTML, like Gecko) Chrome/119.0.0.0 Safari/537.36 OPR/105.0.0.0" etag="jP7KsXX2Pi9ZNi27yzAz" version="22.1.21" type="google">
  <diagram name="PÃ¡gina-1" id="KYXd_mtCvw1d7mnSUbrZ">
    <mxGraphModel grid="0" page="1" gridSize="10" guides="1" tooltips="1" connect="1" arrows="1" fold="1" pageScale="1" pageWidth="850" pageHeight="1100" background="#000000" math="0" shadow="0">
      <root>
        <mxCell id="0" />
        <mxCell id="1" parent="0" />
        <mxCell id="UoAvz9ECMTHmHYGfUipk-30" value="&lt;font color=&quot;#f7f7f7&quot;&gt;User&lt;/font&gt;" style="shape=umlActor;verticalLabelPosition=bottom;verticalAlign=top;html=1;strokeColor=#FCFCFC;" vertex="1" parent="1">
          <mxGeometry x="138" y="246" width="30" height="60" as="geometry" />
        </mxCell>
        <mxCell id="UoAvz9ECMTHmHYGfUipk-35" value="Subscription" style="shape=umlFrame;whiteSpace=wrap;html=1;pointerEvents=0;strokeColor=#FCFCFC;width=90;height=32;" vertex="1" parent="1">
          <mxGeometry x="200" y="133" width="506" height="304" as="geometry" />
        </mxCell>
        <mxCell id="UoAvz9ECMTHmHYGfUipk-38" value="Subscribe" style="ellipse;whiteSpace=wrap;html=1;" vertex="1" parent="1">
          <mxGeometry x="232" y="239" width="84" height="40" as="geometry" />
        </mxCell>
        <mxCell id="UoAvz9ECMTHmHYGfUipk-40" value="Login" style="ellipse;whiteSpace=wrap;html=1;" vertex="1" parent="1">
          <mxGeometry x="235" y="171" width="84" height="40" as="geometry" />
        </mxCell>
        <mxCell id="UoAvz9ECMTHmHYGfUipk-41" value="Check if has ever been subscribed" style="ellipse;whiteSpace=wrap;html=1;" vertex="1" parent="1">
          <mxGeometry x="374" y="162" width="151" height="53" as="geometry" />
        </mxCell>
        <mxCell id="UoAvz9ECMTHmHYGfUipk-42" value="" style="endArrow=open;endSize=12;dashed=1;html=1;rounded=0;exitX=1;exitY=0.5;exitDx=0;exitDy=0;strokeColor=#FFFFFF;" edge="1" parent="1" source="UoAvz9ECMTHmHYGfUipk-40" target="UoAvz9ECMTHmHYGfUipk-41">
          <mxGeometry width="160" relative="1" as="geometry">
            <mxPoint x="333" y="267" as="sourcePoint" />
            <mxPoint x="493" y="267" as="targetPoint" />
          </mxGeometry>
        </mxCell>
        <mxCell id="UoAvz9ECMTHmHYGfUipk-43" value="Payment" style="ellipse;whiteSpace=wrap;html=1;" vertex="1" parent="1">
          <mxGeometry x="235" y="369" width="84" height="40" as="geometry" />
        </mxCell>
        <mxCell id="UoAvz9ECMTHmHYGfUipk-44" value="Check if has cards associated to the account" style="ellipse;whiteSpace=wrap;html=1;" vertex="1" parent="1">
          <mxGeometry x="383.5" y="239" width="235" height="50" as="geometry" />
        </mxCell>
        <mxCell id="UoAvz9ECMTHmHYGfUipk-45" value="Show cards" style="ellipse;whiteSpace=wrap;html=1;" vertex="1" parent="1">
          <mxGeometry x="459" y="312" width="84" height="40" as="geometry" />
        </mxCell>
        <mxCell id="UoAvz9ECMTHmHYGfUipk-47" value="Check user card" style="ellipse;whiteSpace=wrap;html=1;" vertex="1" parent="1">
          <mxGeometry x="438" y="369" width="126" height="40" as="geometry" />
        </mxCell>
        <mxCell id="UoAvz9ECMTHmHYGfUipk-48" value="Add Card" style="ellipse;whiteSpace=wrap;html=1;" vertex="1" parent="1">
          <mxGeometry x="235" y="306" width="84" height="40" as="geometry" />
        </mxCell>
        <mxCell id="UoAvz9ECMTHmHYGfUipk-49" value="" style="endArrow=open;endSize=12;dashed=1;html=1;rounded=0;strokeColor=#FFFFFF;" edge="1" parent="1" source="UoAvz9ECMTHmHYGfUipk-38" target="UoAvz9ECMTHmHYGfUipk-40">
          <mxGeometry width="160" relative="1" as="geometry">
            <mxPoint x="329" y="201" as="sourcePoint" />
            <mxPoint x="402" y="201" as="targetPoint" />
          </mxGeometry>
        </mxCell>
        <mxCell id="UoAvz9ECMTHmHYGfUipk-50" value="" style="endArrow=open;endSize=12;dashed=1;html=1;rounded=0;strokeColor=#FFFFFF;exitX=1;exitY=0.5;exitDx=0;exitDy=0;" edge="1" parent="1" source="UoAvz9ECMTHmHYGfUipk-38" target="UoAvz9ECMTHmHYGfUipk-44">
          <mxGeometry width="160" relative="1" as="geometry">
            <mxPoint x="285" y="249" as="sourcePoint" />
            <mxPoint x="286" y="221" as="targetPoint" />
          </mxGeometry>
        </mxCell>
        <mxCell id="UoAvz9ECMTHmHYGfUipk-51" value="" style="endArrow=open;endSize=12;dashed=1;html=1;rounded=0;strokeColor=#FFFFFF;" edge="1" parent="1" source="UoAvz9ECMTHmHYGfUipk-45" target="UoAvz9ECMTHmHYGfUipk-44">
          <mxGeometry width="160" relative="1" as="geometry">
            <mxPoint x="295" y="259" as="sourcePoint" />
            <mxPoint x="296" y="231" as="targetPoint" />
          </mxGeometry>
        </mxCell>
        <mxCell id="UoAvz9ECMTHmHYGfUipk-52" value="" style="endArrow=open;endSize=12;dashed=1;html=1;rounded=0;strokeColor=#FFFFFF;" edge="1" parent="1" source="UoAvz9ECMTHmHYGfUipk-48" target="UoAvz9ECMTHmHYGfUipk-38">
          <mxGeometry width="160" relative="1" as="geometry">
            <mxPoint x="305" y="269" as="sourcePoint" />
            <mxPoint x="306" y="241" as="targetPoint" />
          </mxGeometry>
        </mxCell>
        <mxCell id="UoAvz9ECMTHmHYGfUipk-53" value="" style="endArrow=open;endSize=12;dashed=1;html=1;rounded=0;strokeColor=#FFFFFF;" edge="1" parent="1" source="UoAvz9ECMTHmHYGfUipk-43" target="UoAvz9ECMTHmHYGfUipk-48">
          <mxGeometry width="160" relative="1" as="geometry">
            <mxPoint x="315" y="279" as="sourcePoint" />
            <mxPoint x="316" y="251" as="targetPoint" />
          </mxGeometry>
        </mxCell>
        <mxCell id="UoAvz9ECMTHmHYGfUipk-54" value="" style="endArrow=open;endSize=12;dashed=1;html=1;rounded=0;strokeColor=#FFFFFF;" edge="1" parent="1" source="UoAvz9ECMTHmHYGfUipk-43" target="UoAvz9ECMTHmHYGfUipk-47">
          <mxGeometry width="160" relative="1" as="geometry">
            <mxPoint x="319.00199999999995" y="384.66" as="sourcePoint" />
            <mxPoint x="327.01" y="267.34" as="targetPoint" />
          </mxGeometry>
        </mxCell>
        <mxCell id="UoAvz9ECMTHmHYGfUipk-55" value="" style="endArrow=classic;html=1;rounded=0;strokeColor=#F7F7F7;exitX=0.506;exitY=0.666;exitDx=0;exitDy=0;exitPerimeter=0;" edge="1" parent="1" source="UoAvz9ECMTHmHYGfUipk-30" target="UoAvz9ECMTHmHYGfUipk-40">
          <mxGeometry width="50" height="50" relative="1" as="geometry">
            <mxPoint x="388" y="292" as="sourcePoint" />
            <mxPoint x="438" y="242" as="targetPoint" />
          </mxGeometry>
        </mxCell>
        <mxCell id="UoAvz9ECMTHmHYGfUipk-56" value="" style="endArrow=classic;html=1;rounded=0;strokeColor=#F7F7F7;exitX=0.49;exitY=0.666;exitDx=0;exitDy=0;exitPerimeter=0;" edge="1" parent="1" source="UoAvz9ECMTHmHYGfUipk-30" target="UoAvz9ECMTHmHYGfUipk-38">
          <mxGeometry width="50" height="50" relative="1" as="geometry">
            <mxPoint x="172" y="310" as="sourcePoint" />
            <mxPoint x="268" y="219" as="targetPoint" />
          </mxGeometry>
        </mxCell>
        <mxCell id="UoAvz9ECMTHmHYGfUipk-57" value="" style="endArrow=classic;html=1;rounded=0;strokeColor=#F7F7F7;exitX=0.475;exitY=0.682;exitDx=0;exitDy=0;exitPerimeter=0;" edge="1" parent="1" source="UoAvz9ECMTHmHYGfUipk-30" target="UoAvz9ECMTHmHYGfUipk-48">
          <mxGeometry width="50" height="50" relative="1" as="geometry">
            <mxPoint x="182" y="320" as="sourcePoint" />
            <mxPoint x="278" y="229" as="targetPoint" />
          </mxGeometry>
        </mxCell>
        <mxCell id="UoAvz9ECMTHmHYGfUipk-58" value="" style="endArrow=classic;html=1;rounded=0;strokeColor=#F7F7F7;exitX=0.459;exitY=0.658;exitDx=0;exitDy=0;exitPerimeter=0;" edge="1" parent="1" source="UoAvz9ECMTHmHYGfUipk-30" target="UoAvz9ECMTHmHYGfUipk-43">
          <mxGeometry width="50" height="50" relative="1" as="geometry">
            <mxPoint x="192" y="330" as="sourcePoint" />
            <mxPoint x="288" y="239" as="targetPoint" />
          </mxGeometry>
        </mxCell>
        <mxCell id="UoAvz9ECMTHmHYGfUipk-59" value="Show Trial Subscription" style="ellipse;whiteSpace=wrap;html=1;" vertex="1" parent="1">
          <mxGeometry x="579" y="166" width="99" height="42" as="geometry" />
        </mxCell>
        <mxCell id="UoAvz9ECMTHmHYGfUipk-60" value="" style="endArrow=open;endSize=12;dashed=1;html=1;rounded=0;strokeColor=#FFFFFF;exitX=1;exitY=0.5;exitDx=0;exitDy=0;" edge="1" parent="1" source="UoAvz9ECMTHmHYGfUipk-41" target="UoAvz9ECMTHmHYGfUipk-59">
          <mxGeometry width="160" relative="1" as="geometry">
            <mxPoint x="329" y="201" as="sourcePoint" />
            <mxPoint x="384" y="200" as="targetPoint" />
          </mxGeometry>
        </mxCell>
      </root>
    </mxGraphModel>
  </diagram>
</mxfile>
